{"title":"RWBY.S03E01-E12.1080p.BluRay.x264-W4F","uid":14699589,"size":8970019990,"categoryP":"video","categoryS":"hd___tv_shows","magnet":"?xt=urn:btih:9daae5d3c9bf1e2c1562d8f659c2c0fe6921a82d&amp;dn=RWBY.S03E01-E12.1080p.BluRay.x264-W4F&amp;tr=udp%3A%2F%2Ftracker.leechers-paradise.org%3A6969&amp;tr=udp%3A%2F%2Fzer0day.ch%3A1337&amp;tr=udp%3A%2F%2Fopen.demonii.com%3A1337&amp;tr=udp%3A%2F%2Ftracker.coppersurfer.tk%3A6969&amp;tr=udp%3A%2F%2Fexodus.desync.com%3A6969","seeders":6,"leechers":2,"uploader":"orangebirds","files":25,"time":1464289827,"description":"RWBY.S03E01-E12.1080p.BluRay.x264-W4F\r\n\r\nGeneral\r\nUnique ID                   : 222857468677983025602738910127178892302 (0xA7A8C987A00F2D829F7967C0A137C40E)\r\nComplete name               : RWBY.S03E12.1080p.BluRay.x264-W4F.mkv\r\nFormat                      : Matroska\r\nFormat version              : Version 4 / Version 2\r\nFile size                   : 1.08 GiB\r\nDuration                    : 27mn 50s\r\nOverall bit rate            : 5 569 Kbps\r\nEncoded date                : UTC 2016-05-05 13:30:59\r\nWriting application         : mkvmerge v9.1.0 ('Little Earthquakes') 64bit\r\nWriting library             : libebml v1.3.3 + libmatroska v1.4.4\r\n\r\nVideo\r\nID                          : 1\r\nFormat                      : AVC\r\nFormat/Info                 : Advanced Video Codec\r\nFormat profile              :   \r\nFormat settings, CABAC      : Yes\r\nFormat settings, ReFrames   : 4 frames\r\nCodec ID                    : V_MPEG4/ISO/AVC\r\nDuration                    : 27mn 50s\r\nBit rate                    : 5 187 Kbps\r\nWidth                       : 1 920 pixels\r\nHeight                      : 1 080 pixels\r\nDisplay aspect ratio        : 16:9\r\nFrame rate mode             : Constant\r\nFrame rate                  : 24.000 fps\r\nColor space                 : YUV\r\nChroma subsampling          : 4:2:0\r\nBit depth                   : 8 bits\r\nScan type                   : Progressive\r\nBits/(Pixel*Frame)          : 0.104\r\nStream size                 : 1.01 GiB (93%)\r\nWriting library             : x264 core 148 r2665 a01e339\r\nEncoding settings           : cabac=1 / ref=4 / deblock=1:1:1 / analyse=0x3:0x113 / me=umh / subme=8 / psy=1 / psy_rd=0.40:0.00 / mixed_ref=1 / me_range=24 / chroma_me=1 / trellis=1 / 8x8dct=1 / cqm=0 / deadzone=21,11 / fast_pskip=1 / chroma_qp_offset=-2 / threads=12 / lookahead_threads=3 / sliced_threads=0 / nr=0 / decimate=1 / interlaced=0 / bluray_compat=0 / constrained_intra=0 / bframes=5 / b_pyramid=2 / b_adapt=2 / b_bias=0 / direct=3 / weightb=1 / open_gop=0 / weightp=2 / keyint=240 / keyint_min=24 / scenecut=40 / intra_refresh=0 / rc_lookahead=50 / rc=2pass / mbtree=1 / bitrate=5187 / ratetol=1.0 / qcomp=0.60 / qpmin=0 / qpmax=69 / qpstep=4 / cplxblur=20.0 / qblur=0.5 / vbv_maxrate=62500 / vbv_bufsize=78125 / nal_hrd=none / filler=0 / ip_ratio=1.40 / aq=1:0.60\r\nDefault                     : Yes\r\nForced                      : No\r\n\r\nAudio\r\nID                          : 2\r\nFormat                      : AC-3\r\nFormat/Info                 : Audio Coding 3\r\nMode extension              : CM (complete main)\r\nFormat settings, Endianness : Big\r\nCodec ID                    : A_AC3\r\nDuration                    : 27mn 50s\r\nBit rate mode               : Constant\r\nBit rate                    : 384 Kbps\r\nChannel(s)                  : 6 channels\r\nChannel positions           : Front: L C R, Side: L R, LFE\r\nSampling rate               : 48.0 KHz\r\nFrame rate                  : 31.250 fps (1536 spf)\r\nCompression mode            : Lossy\r\nStream size                 : 76.5 MiB (7%)\r\nLanguage                    : English\r\nDefault                     : Yes\r\nForced                      : No\r\n\r\nMenu\r\n00:00:00.000                : en:00:00:00.000\r\n00:01:22.875                : en:00:01:22.875\r\n00:21:56.792                : en:00:21:56.792\r\n00:27:27.583                : en:00:27:27.583","torrent":{"xt":"urn:btih:9daae5d3c9bf1e2c1562d8f659c2c0fe6921a82d","amp;dn":"RWBY.S03E01-E12.1080p.BluRay.x264-W4F","amp;tr":["udp%3A%2F%2Ftracker.leechers-paradise.org%3A6969","udp%3A%2F%2Fzer0day.ch%3A1337","udp%3A%2F%2Fopen.demonii.com%3A1337","udp%3A%2F%2Ftracker.coppersurfer.tk%3A6969","udp%3A%2F%2Fexodus.desync.com%3A6969"],"infoHash":"9daae5d3c9bf1e2c1562d8f659c2c0fe6921a82d","infoHashBuffer":{"type":"Buffer","data":[157,170,229,211,201,191,30,44,21,98,216,246,89,194,192,254,105,33,168,45]},"announce":[],"urlList":[]}}